<svg xmlns="http://www.w3.org/2000/svg" viewBox="0 0 1200 720" role="img" aria-labelledby="title desc">
  <title id="title">Fortaleza de Sao Miguel, Luanda</title>
  <desc id="desc">Illustrated view of Fortaleza de Sao Miguel overlooking Luanda Bay.</desc>
  <defs>
    <linearGradient id="sky" x1="0" x2="0" y1="0" y2="1">
      <stop offset="0" stop-color="#87b9d8"/>
      <stop offset=".65" stop-color="#e9d4ad"/>
      <stop offset="1" stop-color="#f6efe2"/>
    </linearGradient>
    <linearGradient id="bay" x1="0" x2="1" y1="0" y2="1">
      <stop offset="0" stop-color="#1f6f8f"/>
      <stop offset="1" stop-color="#76b8be"/>
    </linearGradient>
    <linearGradient id="fort" x1="0" x2="1" y1="0" y2="1">
      <stop offset="0" stop-color="#f6e8cf"/>
      <stop offset="1" stop-color="#cda875"/>
    </linearGradient>
  </defs>
  <rect width="1200" height="720" fill="url(#sky)"/>
  <path d="M0 450c160-46 285-48 430-18 190 40 326 46 480 5 105-28 197-35 290-16v299H0Z" fill="url(#bay)" opacity=".92"/>
  <path d="M0 548c160-40 315-48 475-22 200 31 370 19 512-27 83-27 154-34 213-24v245H0Z" fill="#f4e7c8"/>
  <path d="M115 498c115-55 229-89 365-101 212-19 367 31 563-11 49-11 97-27 142-49v72c-87 44-190 68-309 72-176 7-330-39-501-20-91 10-176 36-260 78Z" fill="#355047" opacity=".25"/>
  <g transform="translate(190 220)">
    <path d="M90 315 235 210 362 252 508 163 660 229 835 196 912 330 743 375 597 346 420 410 271 365Z" fill="#9b764b" opacity=".35"/>
    <path d="M116 286 235 194 358 232 508 141 664 210 813 184 882 300 739 337 596 310 421 374 275 332Z" fill="url(#fort)"/>
    <path d="M116 286 235 194 358 232 508 141 664 210 813 184 882 300 739 337 596 310 421 374 275 332Z" fill="none" stroke="#8e6b43" stroke-width="12" stroke-linejoin="round"/>
    <path d="M253 236h95l-13 73h-80Z" fill="#f9edd7" stroke="#8e6b43" stroke-width="8"/>
    <path d="M468 196h128l20 88H452Z" fill="#f9edd7" stroke="#8e6b43" stroke-width="8"/>
    <path d="M687 235h82l22 58h-118Z" fill="#f9edd7" stroke="#8e6b43" stroke-width="8"/>
    <path d="M522 92v96" stroke="#3a3329" stroke-width="7" stroke-linecap="round"/>
    <path d="M529 97h92v38h-92Z" fill="#c21f26"/>
    <path d="M529 135h92v38h-92Z" fill="#111"/>
    <circle cx="575" cy="135" r="15" fill="#d7a52b"/>
    <path d="M188 278h690" stroke="#fff8e9" stroke-width="7" stroke-linecap="round" opacity=".72"/>
    <path d="M270 330h470" stroke="#6c4d2f" stroke-width="6" stroke-linecap="round" opacity=".3"/>
  </g>
  <g fill="#3b5360" opacity=".55">
    <rect x="760" y="178" width="46" height="142"/>
    <rect x="820" y="132" width="58" height="190"/>
    <rect x="895" y="204" width="48" height="118"/>
    <rect x="958" y="156" width="72" height="166"/>
    <rect x="1048" y="190" width="45" height="132"/>
  </g>
  <g fill="#f8f1e3" opacity=".55">
    <rect x="770" y="198" width="12" height="10"/>
    <rect x="790" y="198" width="12" height="10"/>
    <rect x="835" y="155" width="12" height="10"/>
    <rect x="858" y="155" width="12" height="10"/>
    <rect x="976" y="178" width="12" height="10"/>
    <rect x="1004" y="178" width="12" height="10"/>
  </g>
  <path d="M0 620c161-22 305-24 431-7 177 24 337 20 489-14 106-24 199-28 280-15v136H0Z" fill="#365a45"/>
  <text x="70" y="96" fill="#fff8e9" font-family="Georgia, serif" font-size="54">Fortaleza de Sao Miguel</text>
  <text x="72" y="136" fill="#fff8e9" font-family="Arial, sans-serif" font-size="20" letter-spacing="3">LUANDA CITY WELCOME</text>
</svg>
